<?xml version="1.0" encoding="UTF-8" standalone="no"?>
<!-- Generator: Adobe Illustrator 16.0.0, SVG Export Plug-In . SVG Version: 6.00 Build 0)  -->

<svg
   xmlns:dc="http://purl.org/dc/elements/1.1/"
   xmlns:cc="http://creativecommons.org/ns#"
   xmlns:rdf="http://www.w3.org/1999/02/22-rdf-syntax-ns#"
   xmlns:svg="http://www.w3.org/2000/svg"
   xmlns="http://www.w3.org/2000/svg"
   xmlns:xlink="http://www.w3.org/1999/xlink"
   xmlns:sodipodi="http://sodipodi.sourceforge.net/DTD/sodipodi-0.dtd"
   xmlns:inkscape="http://www.inkscape.org/namespaces/inkscape"
   version="1.1"
   x="0px"
   y="0px"
   width="900"
   height="390"
   viewBox="0 0 900 390"
   enable-background="new 0 0 960 560"
   xml:space="preserve"
   id="svg2"
   inkscape:version="0.48.4 r9939"
   sodipodi:docname="O'Briens Farm Shop.svg"><metadata
     id="metadata102"><rdf:RDF><cc:Work
         rdf:about=""><dc:format>image/svg+xml</dc:format><dc:type
           rdf:resource="http://purl.org/dc/dcmitype/StillImage" /></cc:Work></rdf:RDF></metadata><defs
     id="defs100" /><sodipodi:namedview
     pagecolor="#ffffff"
     bordercolor="#666666"
     borderopacity="1"
     objecttolerance="10"
     gridtolerance="10"
     guidetolerance="10"
     inkscape:pageopacity="0"
     inkscape:pageshadow="2"
     inkscape:window-width="1309"
     inkscape:window-height="744"
     id="namedview98"
     showgrid="false"
     inkscape:zoom="0.97772021"
     inkscape:cx="475.17937"
     inkscape:cy="268.23529"
     inkscape:window-x="57"
     inkscape:window-y="24"
     inkscape:window-maximized="1"
     inkscape:current-layer="svg2" /><g
     id="Layer_1"
     display="none"
     style="display:none"
     transform="translate(0,-170)"><image
       sodipodi:absref="/media/eoin/Files/SkyDrive/Eoin O'Brien Design/O'Briens Farm Shop/FARM LOGO, long banner.png"
       xlink:href="FARM LOGO, long banner.png"
       style="display:inline;overflow:visible"
       id="image5"
       transform="matrix(0.2399,0,0,0.2399,745,13.5562)"
       height="352"
       width="840"
       overflow="visible"
       display="inline" /><image
       sodipodi:absref="/media/eoin/Files/SkyDrive/Eoin O'Brien Design/O'Briens Farm Shop/FARM LOGO, long banner.png"
       xlink:href="FARM LOGO, long banner.png"
       style="display:inline;overflow:visible"
       id="image7"
       transform="matrix(1.056,0,0,1.056,36.4336,94.1016)"
       height="352"
       width="840"
       overflow="visible"
       display="inline" /></g><g
     id="Layer_2"
     transform="translate(-30,-86.75)"><g
       id="g10"><path
         stroke-miterlimit="10"
         d="M 660.3,223.6 479.5,97 v 0 l -180,126.5 h 39.3 l 140.7,-94.3 v 0 l 141.3,94.3"
         id="path12"
         inkscape:connector-curvature="0"
         style="fill:#3ddb12;stroke:#40796b;stroke-width:5;stroke-linecap:square;stroke-linejoin:round;stroke-miterlimit:10" /><path
         stroke-miterlimit="10"
         d="M 645,344 480,466.5 h 0 l -165,-122.7 40.1,0.4 124.9,93.3 h 0 l 124.9,-93"
         id="path14"
         inkscape:connector-curvature="0"
         style="fill:#3ddb12;stroke:#40796b;stroke-width:5;stroke-linejoin:round;stroke-miterlimit:10" /><g
         id="g16"><path
           d="M 96.5,343 C 64.8,343 39,316.3 39,283.5 39,250.7 64.8,224 96.5,224 h 767 c 31.7,0 57.5,26.7 57.5,59.5 0,32.8 -25.8,59.5 -57.5,59.5 h -767 z"
           id="path18"
           inkscape:connector-curvature="0"
           style="fill:#3ddb12" /><path
           d="m 863.5,227 c 30.3,0 55,25.6 55,57 0,31.4 -24.7,57 -55,57 h -767 c -30.3,0 -55,-25.6 -55,-57 0,-31.4 24.7,-57 55,-57 H 863 m 0.5,-5 h -767 c -33.1,0 -60,27.8 -60,62 0,34.2 26.9,62 60,62 h 767 c 33.1,0 60,-27.8 60,-62 0,-34.2 -26.9,-62 -60,-62 l 0,0 z"
           id="path20"
           inkscape:connector-curvature="0"
           style="fill:#40796b" /></g><g
         id="g22"><path
           d="m 863.5,241 c 22.6,0 41,19.3 41,43 0,23.7 -18.4,43 -41,43 h -767 c -22.6,0 -41,-19.3 -41,-43 0,-23.7 18.4,-43 41,-43 H 863 m 0.5,-4 h -767 c -24.8,0 -45,21.1 -45,47 0,25.9 20.2,47 45,47 h 767 c 24.8,0 45,-21.1 45,-47 0,-25.9 -20.2,-47 -45,-47 l 0,0 z"
           id="path24"
           inkscape:connector-curvature="0"
           style="fill:#40796b" /></g><g
         id="g26"><path
           d="m 863.5,244 c 21,0 38,17.9 38,40 0,22.1 -17,40 -38,40 h -767 c -21,0 -38,-17.9 -38,-40 0,-22.1 17,-40 38,-40 H 863 m 0.5,-3 h -767 c -22.6,0 -41,19.3 -41,43 0,23.7 18.4,43 41,43 h 767 c 22.6,0 41,-19.3 41,-43 0,-23.7 -18.4,-43 -41,-43 l 0,0 z"
           id="path28"
           inkscape:connector-curvature="0"
           style="fill:#ffffff" /></g><path
         stroke-miterlimit="10"
         d="M 480,265.6"
         id="path30"
         inkscape:connector-curvature="0"
         style="fill:none;stroke:#000000;stroke-miterlimit:10" /><g
         id="g32"><path
           d="m 98.6,256 c -33.4,0 -40.9,53.5 -15.1,53.5 38.8,0 37.4,-53.5 23.2,-53.5 -5,0 -8.3,10.8 -8.3,10.8 0,0 2,30.3 -10.5,29.8 -12.5,-0.5 4.8,-30 10.5,-29.8 L 98.6,256 z"
           id="path34"
           inkscape:connector-curvature="0"
           style="fill:#ffffff" /><rect
           x="120"
           y="255"
           width="10"
           height="21"
           id="rect36"
           style="fill:#ffffff" /><path
           d="m 138.7,271.5 c 0,-15.6 8.4,-16 22.6,-16 14.2,0 24.3,4.1 24.3,14.3 0,10.2 -11.6,13.6 -11.6,14.1 0,0.5 5.1,1.4 5.1,10.3 0,8.9 -10.2,15.3 -26.4,15.3 -16.2,0 -16.7,-10.1 -16.7,-10.5 0,-0.4 8.1,-28.6 10.7,-29.2 2.6,-0.6 14.1,-1.2 14.5,1.1 0.4,2.3 -9.9,24.1 -9.9,25.6 0,1.9 11.9,0.3 11.9,-3.8 0,-4.8 -4.3,1.8 -4.3,-13.1 0,-4.1 11.1,-1.4 11.1,-8.3 0,-2.1 -1,-3.9 -8.7,-3.9 -7.7,0 -18.9,4.1 -22.6,4.1 z"
           id="path38"
           inkscape:connector-curvature="0"
           style="fill:#ffffff" /><path
           d="m 189.5,270.9 c 0,-13.4 7.6,-15.4 22.1,-15.4 14.5,0 24.8,3.8 24.8,15.6 0,16.3 -15.6,16.4 -15.6,19.7 0,5.5 11.3,14.5 11.3,16.8 0,2 -6.1,6.4 -10.3,6.4 -7.5,0 -13.2,-20.3 -16.6,-20.3 -1.8,0 -1.8,15.9 -3.6,15.9 -1.8,0 -15.4,0.3 -15.4,-2.5 0,-2.8 8.6,-37.5 11.6,-37.5 3,0 13,0.5 13.5,2.5 0.5,2 -3.8,8.8 -2.3,8.8 1.5,0 12.3,-0.8 12,-7.9 -0.1,-2.7 -2.6,-5.7 -8.6,-5.6 -8.7,0 -17.7,3.5 -22.9,3.5 z"
           id="path40"
           inkscape:connector-curvature="0"
           style="fill:#ffffff" /><path
           d="m 238.1,306 c -0.1,-6.1 12.8,-47.8 15.5,-50.5 6.5,-1.4 12,-0.8 14.8,1.6 -8.3,27.6 -14.2,52.3 -15.3,52.4 -2.8,0.9 -9.6,0.6 -15,-3.5 z"
           id="path42"
           inkscape:connector-curvature="0"
           style="fill:#ffffff" /><path
           d="m 279.6,257 h 35.3 c 0.7,5 -2.6,11.8 -2.6,11.8 -2,0.9 -23.7,-1.1 -23.5,0.3 0.3,1.5 6.7,2.2 6,4.1 -1.2,3.5 -1.8,4.8 -1.8,4.8 3.3,0 17,0 17,0 -0.4,6 -1.8,11.8 -3.1,11.8 -3.5,0 -17.3,-0.1 -17.3,-0.1 l -2.1,6.1 c 1.8,0 19.3,0.7 19.3,0.7 1.6,2.3 -1.6,11.4 -3.3,11.7 -4.1,0.9 -19.9,1.3 -27.3,-0.7 -1.4,-0.4 -5.1,-4.9 -5.1,-7.4 0,-2.5 2.9,-10 2.9,-10 -1.7,0 -3.5,-0.4 -3.5,-0.4 -0.8,-0.8 2.1,-10.8 2.1,-10.8 2.3,-0.9 5,-1.3 5,-1.3 0.7,-0.8 2.8,-9.5 2.8,-9.5 -1.2,0 -4.9,0 -4.9,0 0,0 0.7,-8.1 4.1,-11.1 z"
           id="path44"
           inkscape:connector-curvature="0"
           style="fill:#ffffff" /><path
           d="m 313.5,307 c -1.9,-2.4 14.5,-50.9 15.1,-51.5 0.7,-0.8 9.5,-1 13.1,1 8.8,4.9 6.6,29.7 9.3,28 1.5,-1 4.5,-29.4 8.1,-29.4 5.4,0 11.8,1.8 12.5,3.4 C 361,296.4 359,309 359,309 c -2.8,0.6 -12.6,0.9 -15.4,-1.5 -2.8,-2.4 -4.4,-24 -7,-32.3 -1.1,-1.5 -6.8,34.2 -9.4,34.2 -5,-0.1 -11.5,0.4 -13.7,-2.4 z"
           id="path46"
           inkscape:connector-curvature="0"
           style="fill:#ffffff" /><rect
           x="373"
           y="254"
           width="10"
           height="21"
           id="rect48"
           style="fill:#ffffff" /><path
           d="m 418.1,271.1 c 0,0 5.2,0.6 10.3,0 3.2,-0.4 2.5,-14.6 2.5,-14.6 -4.6,-2.4 -35.9,-2.1 -35.9,12.9 0,11.5 13.8,18.6 10.6,25.9 -0.3,0.6 -4.6,1.3 -5.5,1.1 -0.9,-0.2 -0.1,-3.9 -0.1,-3.9 -2.3,-1.8 -10.9,-0.9 -13.5,1.1 -2.1,1.7 -1.2,13.7 -0.4,14.7 2.1,2.3 35.9,3.7 35.9,-15.1 0,-13.9 -11.4,-13.3 -11.4,-22 0,-4.4 4.1,-4.8 7,-3.5 0.6,0.3 -0.5,2.4 0.5,3.4 z"
           id="path50"
           inkscape:connector-curvature="0"
           style="fill:#ffffff" /><path
           d="m 496.5,269.4 c 0,0 4.2,-9.4 3.4,-12.4 h -35.1 c -2.1,2 -5.1,12.4 -5.1,12.4 3,0.5 3.8,-0.4 6.1,-0.1 l -1.8,8.8 c -1.4,0.3 -3.8,-0.3 -4.4,0 -1.4,0.6 -4.3,11.2 -3.5,12.1 0.8,0.9 1.7,0 3.2,0.6 1.5,0.6 -4.5,16.6 -3.4,17.1 2.6,1.1 11.7,1.7 14.4,1 2.3,-0.6 3.8,-17.1 5.6,-18.4 1,-0.8 15.2,0.8 16.3,-0.8 0.5,-0.7 2.7,-11.7 2.1,-12 -2,-1.1 -14.4,-0.1 -14.4,-0.1 0.3,-1 0.9,-5.4 0.9,-5.4 -2,-1 -7.9,-2.3 -7.1,-3.2 0.9,-1.3 20,1.5 22.8,0.4 z"
           id="path52"
           inkscape:connector-curvature="0"
           style="fill:#ffffff" /><path
           d="m 822.6,256 c -33.4,0 -40.9,53.5 -15.1,53.5 38.8,0 37.4,-53.5 23.2,-53.5 -5,0 -8.3,10.8 -8.3,10.8 0,0 2,30.3 -10.5,29.8 -12.5,-0.5 4.8,-30 10.5,-29.8 l 0.2,-10.8 z"
           id="path54"
           inkscape:connector-curvature="0"
           style="fill:#ffffff" /><path
           d="m 548.5,270.9 c 0,-13.4 7.6,-15.4 22.1,-15.4 14.5,0 24.8,3.8 24.8,15.6 0,16.3 -15.6,16.4 -15.6,19.7 0,5.5 11.3,14.5 11.3,16.8 0,2 -6.1,6.4 -10.3,6.4 -7.5,0 -13.2,-20.3 -16.6,-20.3 -1.8,0 -1.8,15.9 -3.6,15.9 -1.8,0 -15.4,0.3 -15.4,-2.5 0,-2.8 8.6,-37.5 11.6,-37.5 3,0 13,0.5 13.5,2.5 0.5,2 -3.8,8.8 -2.3,8.8 1.5,0 12.3,-0.8 12,-7.9 -0.1,-2.7 -2.6,-5.7 -8.6,-5.6 -8.7,0 -17.7,3.5 -22.9,3.5 z"
           id="path56"
           inkscape:connector-curvature="0"
           style="fill:#ffffff" /><path
           d="m 725.1,271.1 c 0,0 5.3,0.6 10.3,0 3.2,-0.4 2.5,-14.6 2.5,-14.6 -4.6,-2.4 -35.9,-2.1 -35.9,12.9 0,11.5 13.8,18.6 10.6,25.9 -0.3,0.6 -4.6,1.3 -5.5,1.1 -0.9,-0.2 -0.1,-3.9 -0.1,-3.9 -2.3,-1.8 -10.9,-0.9 -13.5,1.1 -2.1,1.7 -1.2,13.7 -0.4,14.7 2.1,2.3 35.9,3.7 35.9,-15.1 0,-13.9 -11.4,-13.3 -11.4,-22 0,-4.4 4.1,-4.8 7,-3.5 0.6,0.3 -0.5,2.4 0.5,3.4 z"
           id="path58"
           inkscape:connector-curvature="0"
           style="fill:#ffffff" /><path
           d="m 524.2,290.4 c -0.2,-1.1 -3.1,5.9 -3.9,6.4 -1.1,0.6 -6.5,-0.2 -6.5,-0.2 -1.3,3.4 -5,13 -7.6,13.4 -2.4,0.4 -8.9,-0.8 -11.3,-3 -2.4,-2.2 3.4,-9.4 3.1,-10.2 0,0 -2.3,0.4 -2.3,-0.5 0,-2.4 2.1,-9.2 3.4,-11.6 0.9,-1.8 6.4,0.6 6.6,-1.2 0.2,-2 11.8,-25.7 15.8,-28 0.7,-0.4 11.5,-1 14.7,1.5 2.1,1.7 5,49.6 2.1,52.2 -0.9,0.9 -11.3,1.4 -13.1,0 -2.3,-1.6 -0.8,-17.7 -1,-18.8 z m 1.9,-5.7 c 0.6,-1.2 1,-16.7 0,-16.7 -1.4,0 -8.5,16.2 -7.7,16.7 0.6,0.4 7.7,0 7.7,0 z"
           id="path60"
           inkscape:connector-curvature="0"
           style="fill:#ffffff" /><path
           d="m 647.6,308.9 c 0.6,0.9 11.5,1.2 12.5,0 3.6,-4.3 7.6,-49.9 6.5,-50.9 -1.5,-1.5 -14.6,-3.5 -16,-2.5 -8.4,5.5 -18.3,33.1 -19.6,33 -2,-0.1 3.2,-28.3 -1.1,-31.1 -0.8,-0.5 -12.7,-3.1 -16.2,-1.9 -2.6,0.9 -21.6,49.7 -20.1,51.1 1.4,1.4 11.9,4 13.6,3.1 2.2,-1.1 10.1,-33.9 11.3,-35.4 1.6,-2 -2,31.2 -0.3,32.5 2.1,1.5 11.3,3.5 13,2.9 2.3,-0.8 19.9,-36.5 21,-35.8 1.3,0.7 -5.7,33.3 -4.6,35 z"
           id="path62"
           inkscape:connector-curvature="0"
           style="fill:#ffffff" /><path
           d="m 777.6,256 c 0.8,-0.6 12.5,0 14.5,1.4 2.9,2 -13.4,50.8 -15.2,52.1 -1,0.8 -12.7,0 -13.6,-1.5 -1.6,-2.5 6.8,-24.5 6.1,-24.5 -1.5,0 -4.4,6.3 -4.4,6.3 -2.8,0.1 -6.2,-0.9 -7.8,-0.5 -2.3,0.6 -4.9,20.2 -6.4,20.2 -3.5,0 -12.7,0.2 -14.3,-1.1 -1.5,-1.3 5.9,-18.8 4.3,-18.8 -2.2,0.1 -3.5,1 -3.5,0.1 0.6,-13.8 0.6,-11.6 6.8,-12.7 1.9,-0.3 5.1,-20.9 8.4,-21.6 2.9,-0.6 10,0.8 12.9,2.1 2.8,1.3 -4.1,16.3 -4,19 0,0 9.6,1.8 10.5,0.6 0.9,-1.2 3.6,-19.4 5.7,-21.1 z"
           id="path64"
           inkscape:connector-curvature="0"
           style="fill:#ffffff" /><path
           d="m 843.2,307.4 c -1.4,-0.8 12.5,-38 10.9,-36.9 -2.4,1.6 -9.4,3.3 -9.1,1.6 2.6,-17.6 9.3,-16.6 21.9,-16.9 12.6,-0.3 25.1,5 25.1,17.1 0,18.1 -24.7,23.5 -26.9,22.1 -0.6,-0.4 0.6,-7.5 0,-7.4 -2,0.4 -5.8,22.1 -7.3,22.4 -1.5,0.4 -13.1,-1.2 -14.6,-2 z m 24.3,-25.5 c 0.1,1.7 8.7,-4.3 9,-7.6 0.8,-8.1 -17.9,-8.1 -17.9,-5.4 0,1.4 9.1,0.7 10.3,4.1 0.1,0.7 -1.6,5.5 -1.4,8.9 z"
           id="path66"
           inkscape:connector-curvature="0"
           style="fill:#ffffff" /></g></g><g
       id="g68" /><g
       id="g70" /><g
       id="g72" /><g
       id="g74" /><g
       id="g76" /><g
       id="g78" /><g
       id="g80" /><g
       id="g82" /><g
       id="g84" /><g
       id="g86" /><g
       id="g88" /><g
       id="g90" /><g
       id="g92" /><g
       id="g94" /><g
       id="g96" /></g></svg>